<?xml version="1.0" encoding="UTF-8"?>
<svg id="Layer_1" data-name="Layer 1" xmlns="http://www.w3.org/2000/svg" viewBox="0 0 161.83 211.91">
  <defs>
    <style>
      .cls-1 {
        fill: #fff;
      }
    </style>
  </defs>
  <path class="cls-1" d="M18.16,90.23s-.08.05-.12.08c-2.41,1.91-3.93,4.64-4.29,7.69-.1.89-.09,1.77,0,2.63,1.51-2,3.27-3.87,5.33-5.49.62-.49,1.27-.93,1.91-1.36-.57-.61-1.13-1.23-1.65-1.89-.42-.53-.8-1.09-1.18-1.65Z"/>
  <path class="cls-1" d="M74.75,52.65c-1.23-.64-2.57-1.07-3.98-1.23-2.63-.31-5.23.29-7.45,1.68.73.74,1.42,1.52,2.08,2.35.51.64.96,1.31,1.41,1.98.19-.15.35-.32.54-.47,2.28-1.8,4.77-3.24,7.39-4.3Z"/>
  <path class="cls-1" d="M155.96,167.67c-.62.49-1.26.94-1.91,1.38.57.6,1.12,1.22,1.64,1.88h0c.56.71,1.07,1.44,1.55,2.18.07-.05.14-.1.21-.15,2.41-1.91,3.93-4.64,4.29-7.69.14-1.19.09-2.36-.13-3.5-1.6,2.19-3.48,4.18-5.66,5.91Z"/>
  <path class="cls-1" d="M100.08,210.23c3.62,2.2,8.32,2.3,12.11-.09-.89-.88-1.76-1.79-2.55-2.79-.51-.64-.96-1.31-1.41-1.98-.19.16-.36.33-.55.48-2.34,1.85-4.91,3.3-7.61,4.38Z"/>
  <path class="cls-1" d="M0,27.63l21.16,26.75c.95-.9,1.94-1.78,2.98-2.6,1.04-.82,2.11-1.58,3.21-2.3L4.09,20.09,0,27.63Z"/>
  <path class="cls-1" d="M83.02,69.13c5.42,6.85,7.97,15.3,7.36,23.95.7.05,1.4.11,2.1.19.79.09,1.56.25,2.34.39,1.44-5.92,4.62-11.43,9.44-15.74-.46-3.08-1.68-6.08-3.74-8.68-3.05-3.85-7.41-6.29-12.29-6.86-.73-.08-1.45-.13-2.17-.13-2.77,0-5.47.63-7.94,1.83,1.78,1.5,3.42,3.18,4.9,5.05Z"/>
  <path class="cls-1" d="M28.6,112.18c-1.55-1.96-2.84-4.05-3.91-6.2-6.38,6.51-7.09,16.92-1.29,24.26,2.02,2.56,4.63,4.47,7.58,5.65,5.3-3.7,11.4-5.52,17.48-5.57.11-1.89.35-3.77.72-5.63-8.14-1.57-15.39-5.93-20.59-12.51Z"/>
  <path class="cls-1" d="M34.28,63.44c4.84-3.83,10.49-6.21,16.44-7.09-1.91-.92-3.96-1.54-6.13-1.8-.76-.09-1.52-.13-2.27-.13-4.31,0-8.46,1.44-11.89,4.15-4.03,3.19-6.58,7.75-7.17,12.85-.25,2.17-.12,4.33.34,6.4,2.17-5.48,5.73-10.48,10.68-14.4Z"/>
  <path class="cls-1" d="M72.43,77.51c-3.51-4.44-8.54-7.24-14.16-7.9-.84-.1-1.67-.15-2.5-.15-4.75,0-9.32,1.58-13.1,4.57-9.16,7.25-10.72,20.6-3.47,29.76,3.51,4.44,8.54,7.25,14.16,7.9.3.04.61.04.91.06,2.35-3.82,5.4-7.29,9.11-10.23,4-3.16,8.47-5.47,13.21-6.89,1.12-5.84-.2-12.11-4.16-17.13Z"/>
  <path class="cls-1" d="M92.02,193.67c-4.96-6.27-7.55-13.89-7.47-21.78-.41-.04-.82-.06-1.24-.11-1.72-.2-3.4-.55-5.05-.96-1.48,4.61-4.05,8.91-7.65,12.49.22,3.62,1.5,7.2,3.91,10.25,3.05,3.85,7.41,6.29,12.29,6.86,3.52.42,7-.2,10.12-1.71-1.77-1.49-3.42-3.16-4.91-5.04Z"/>
  <path class="cls-1" d="M127.15,137.11c-.05.41-.14.81-.2,1.22,7.7,1.74,14.53,6.01,19.5,12.3,1.55,1.96,2.84,4.05,3.91,6.21,2.85-2.9,4.66-6.62,5.13-10.72.57-4.88-.79-9.69-3.84-13.54-2.32-2.93-5.41-5.04-8.9-6.13-4.67,3.27-9.97,5.11-15.33,5.53.02,1.7-.06,3.42-.26,5.14Z"/>
  <path class="cls-1" d="M140.76,199.37c-4.94,3.91-10.63,6.23-16.45,7.08,1.91.92,3.97,1.55,6.14,1.8,5.11.6,10.13-.83,14.16-4.02,5.96-4.71,8.35-12.27,6.82-19.24-2.17,5.47-5.73,10.47-10.67,14.37Z"/>
  <path class="cls-1" d="M112.41,163.53c-4.3,3.4-9.15,5.81-14.29,7.18-.36,5.27,1.2,10.41,4.5,14.58,7.25,9.16,20.6,10.73,29.76,3.47,4.44-3.51,7.24-8.54,7.9-14.16.66-5.62-.92-11.16-4.43-15.6-3.3-4.17-7.95-6.88-13.16-7.74-2.52,4.68-5.98,8.86-10.28,12.26Z"/>
  <path class="cls-1" d="M56.89,157.05c-3.2-4.04-5.46-8.52-6.85-13.18-.45-.03-.9-.07-1.35-.07-3.81,0-7.65,1.23-10.86,3.78-7.59,6-8.88,17.06-2.88,24.64,2.91,3.68,7.07,6,11.73,6.54,4.65.54,9.24-.76,12.92-3.67,3.24-2.56,5.32-6.05,6.19-9.8-3.32-2.25-6.33-5-8.89-8.24Z"/>
  <path class="cls-1" d="M118.89,108.01c2.56,3.24,4.56,6.8,5.99,10.56,3.96.02,7.79-1.28,10.94-3.77,3.68-2.91,6-7.07,6.54-11.73.54-4.65-.76-9.24-3.67-12.92-3.46-4.37-8.59-6.65-13.78-6.65-3.81,0-7.65,1.23-10.86,3.78-3.59,2.84-5.75,6.82-6.42,11.02,4.28,2.47,8.1,5.73,11.25,9.72Z"/>
  <path class="cls-1" d="M105.65,118.49c-3.75-4.74-9.12-7.74-15.13-8.44-.89-.1-1.78-.16-2.67-.16-5.07,0-9.96,1.69-14,4.89-4.74,3.75-7.74,9.12-8.44,15.13-.7,6.01.98,11.92,4.73,16.67s9.12,7.74,15.13,8.44c6,.7,11.92-.98,16.67-4.73,9.79-7.74,11.45-22.01,3.71-31.8Z"/>
  <path class="cls-1" d="M34.46,0c-6.38,3.35-16.04,9.68-18.71,18.36-1.37,4.47-.69,9.1,2.09,14.08C34.12,26.72,35.2,9.47,34.46,0Z"/>
  <path class="cls-1" d="M28.56,37.43c-.9-.17-3.05-.59-6.22.83,4.45,6.05,11.63,7.37,17.67,7.15-3.21-3.71-7.25-7.17-11.45-7.98Z"/>
</svg>